<svg width="430" height="369" viewBox="0 0 430 369" fill="none" xmlns="http://www.w3.org/2000/svg">
<g clip-path="url(#clip0_857_2)">
<rect x="18" y="104" width="279" height="246" rx="24" stroke="#D9D9D9" stroke-width="2"/>
<rect x="34.5" y="112.5" width="246" height="18" rx="9" stroke="#D9D9D9"/>
<circle cx="47" cy="122" r="4" fill="#D9D9D9"/>
<circle cx="75" cy="122" r="4" fill="#D9D9D9"/>
<circle cx="61" cy="122" r="4" fill="#D9D9D9"/>
<path d="M93 190L98 185L111 198L124 185L129 190L116 203L129 216L124 221L111 208L98 221L93 216L106 203L93 190Z" stroke="white" stroke-width="4" stroke-linecap="round" stroke-linejoin="round"/>
<path d="M187 190L192 185L205 198L218 185L223 190L210 203L223 216L218 221L205 208L192 221L187 216L200 203L187 190Z" stroke="white" stroke-width="4" stroke-linecap="round" stroke-linejoin="round"/>
<rect x="74" y="273" width="30" height="15" fill="white"/>
<rect x="89" y="258" width="138" height="15" fill="white"/>
<rect x="211" y="273" width="30" height="15" fill="white"/>
<path d="M309.6 108.44H302.72L306.848 103.928C309.6 100.826 311.32 96.878 312.352 92.084C295.152 85.598 285.52 73.4719 285.52 57.68C285.52 33.4279 307.88 18.2 344 18.2C380.12 18.2 402.48 33.4279 402.48 57.68C402.48 82.496 380.464 97.1599 344 97.1599H341.592C336.088 102.518 326.456 108.44 309.6 108.44ZM344 23.84C311.664 23.84 292.4 36.53 292.4 57.68C292.4 75.728 305.816 84.188 317.168 87.854L319.576 88.6999L319.232 90.9559C318.544 95.4679 317.512 99.4159 315.448 102.8C326.8 101.672 333.336 96.8779 337.12 92.9299L338.152 91.8019H344C390.44 91.8019 395.6 68.114 395.6 57.962C395.6 36.53 376.336 23.84 344 23.84Z" fill="#D9D9D9"/>
<path d="M325.25 50.5833V58.9166C325.25 59.4691 325.469 59.999 325.86 60.3897C326.251 60.7804 326.781 60.9999 327.333 60.9999H333.583M333.583 50.5833V71.4166M354.417 50.5833V58.9166C354.417 59.4691 354.636 59.999 355.027 60.3897C355.418 60.7804 355.947 60.9999 356.5 60.9999H362.75M362.75 50.5833V71.4166M339.833 52.6666V69.3333C339.833 69.8858 340.053 70.4157 340.444 70.8064C340.834 71.1971 341.364 71.4166 341.917 71.4166H346.083C346.636 71.4166 347.166 71.1971 347.556 70.8064C347.947 70.4157 348.167 69.8858 348.167 69.3333V52.6666C348.167 52.1141 347.947 51.5841 347.556 51.1934C347.166 50.8027 346.636 50.5833 346.083 50.5833H341.917C341.364 50.5833 340.834 50.8027 340.444 51.1934C340.053 51.5841 339.833 52.1141 339.833 52.6666Z" stroke="white" stroke-width="2" stroke-linecap="round" stroke-linejoin="round"/>
</g>
<defs>
<clipPath id="clip0_857_2">
<rect width="430" height="369" fill="white"/>
</clipPath>
</defs>
</svg>
