<svg width="110" height="59" viewBox="0 0 250 149" fill="none" xmlns="http://www.w3.org/2000/svg">
<path d="M71.0434 59.3C70.61 59.7667 69.9267 60.25 68.9934 60.75C68.06 61.2167 66.9767 61.65 65.7434 62.05C64.5434 62.45 63.31 62.7667 62.0434 63C60.7767 63.2667 59.5767 63.4 58.4434 63.4C55.4434 63.4 52.7434 62.9667 50.3434 62.1C47.9434 61.2 45.8934 59.9667 44.1934 58.4C42.4934 56.8 41.1934 54.9167 40.2934 52.75C39.3934 50.5833 38.9434 48.2167 38.9434 45.65C38.9434 42.2833 39.4434 39.3667 40.4434 36.9C41.4767 34.4 42.86 32.3333 44.5934 30.7C46.36 29.0333 48.3767 27.8 50.6434 27C52.9434 26.2 55.3434 25.8 57.8434 25.8C60.21 25.8 62.3767 26.0667 64.3434 26.6C66.31 27.1 67.9767 27.7333 69.3434 28.5L66.9934 35.25C66.3934 34.9167 65.5934 34.5833 64.5934 34.25C63.5934 33.9167 62.5767 33.65 61.5434 33.45C60.51 33.2167 59.5934 33.1 58.7934 33.1C56.7934 33.1 55.0267 33.35 53.4934 33.85C51.96 34.35 50.66 35.1 49.5934 36.1C48.56 37.1 47.7767 38.35 47.2434 39.85C46.71 41.3167 46.4434 43.0333 46.4434 45C46.4434 46.7333 46.7434 48.3 47.3434 49.7C47.9434 51.0667 48.7767 52.2333 49.8434 53.2C50.9434 54.1667 52.2267 54.9 53.6934 55.4C55.1934 55.9 56.8434 56.15 58.6434 56.15C59.6767 56.15 60.6267 56.0833 61.4934 55.95C62.36 55.7833 63.0934 55.5333 63.6934 55.2V50.75H57.3434V43.75H71.0434V59.3ZM82.6293 63L99.2293 24.75H99.6293L116.229 63H107.829L97.2293 36.1L102.479 32.5L89.7793 63H82.6293ZM93.9793 49.7H105.029L107.579 55.8H91.7293L93.9793 49.7ZM129.094 63V24.7H129.144L149.594 53.7L146.494 53L166.894 24.7H166.994V63H159.744V41.05L160.194 44.8L147.744 62.5H147.644L134.844 44.8L136.094 41.35V63H129.094ZM184.006 26.2H209.106V33.2H191.256V41.05H207.056V48.05H191.256V56H209.806V63H184.006V26.2ZM53.9647 76.2V113H46.7146V98.05H30.2646V113H23.0146V76.2H30.2646V91.05H46.7146V76.2H53.9647ZM66.7943 113L83.3943 74.75H83.7943L100.394 113H91.9943L81.3943 86.1L86.6443 82.5L73.9443 113H66.7943ZM78.1443 99.7H89.1943L91.7443 105.8H75.8943L78.1443 99.7ZM113.291 76.2L124.041 102.7L119.841 101.85L129.591 76.2H138.191L121.391 114.7L104.591 76.2H113.291ZM152.058 76.2H177.158V83.2H159.308V91.05H175.108V98.05H159.308V106H177.858V113H152.058V76.2ZM225.808 114.5L197.908 89.3L200.058 90.5L200.208 113H192.858V74.75H193.158L220.458 99.85L218.858 99.15L218.708 76.2H226.008V114.5H225.808Z" fill="white"/>
</svg>
